<svg width="21" height="24" viewBox="0 0 21 24" fill="none" xmlns="http://www.w3.org/2000/svg">
<path d="M19.25 10C19.25 17 10.25 23 10.25 23C10.25 23 1.25 17 1.25 10C1.25 7.61305 2.19821 5.32387 3.88604 3.63604C5.57387 1.94821 7.86305 1 10.25 1C12.6369 1 14.9261 1.94821 16.614 3.63604C18.3018 5.32387 19.25 7.61305 19.25 10Z" stroke="#8BC4E8" stroke-width="2.5" stroke-linecap="round" stroke-linejoin="round"/>
<path d="M10.25 13C11.9069 13 13.25 11.6569 13.25 10C13.25 8.34315 11.9069 7 10.25 7C8.59315 7 7.25 8.34315 7.25 10C7.25 11.6569 8.59315 13 10.25 13Z" stroke="#8BC4E8" stroke-width="2.5" stroke-linecap="round" stroke-linejoin="round"/>
</svg>
