<svg width="20" height="20" viewBox="0 0 20 20" fill="none" xmlns="http://www.w3.org/2000/svg">
<g clip-path="url(#clip0_18_269)">
<path d="M5.83333 9.16663V5.83329C5.83333 4.72822 6.27232 3.66842 7.05372 2.88701C7.83512 2.10561 8.89493 1.66663 10 1.66663C11.1051 1.66663 12.1649 2.10561 12.9463 2.88701C13.7277 3.66842 14.1667 4.72822 14.1667 5.83329V9.16663M4.16667 9.16663H15.8333C16.7538 9.16663 17.5 9.91282 17.5 10.8333V16.6666C17.5 17.5871 16.7538 18.3333 15.8333 18.3333H4.16667C3.24619 18.3333 2.5 17.5871 2.5 16.6666V10.8333C2.5 9.91282 3.24619 9.16663 4.16667 9.16663Z" stroke="#D9D9D9" stroke-width="1.8" stroke-linecap="round" stroke-linejoin="round"/>
</g>
<defs>
<clipPath id="clip0_18_269">
<rect width="20" height="20" fill="white"/>
</clipPath>
</defs>
</svg>
