<svg width="46" height="69" viewBox="0 0 46 69" fill="none" xmlns="http://www.w3.org/2000/svg">
<path fill-rule="evenodd" clip-rule="evenodd" d="M24.9545 66.0242C23.8399 67.2929 21.9193 67.2929 20.8047 66.0242C15.1694 59.6093 0 40.6611 0 22.5683C0 10.1125 10.252 1.52588e-05 22.8796 1.52588e-05C35.5072 1.52588e-05 45.7593 10.1125 45.7593 22.5683C45.7593 40.6611 30.5898 59.6093 24.9545 66.0242ZM22.8796 14.6147C18.35 14.6147 14.6726 18.2422 14.6726 22.7101C14.6726 27.1781 18.35 30.8055 22.8796 30.8055C27.4093 30.8055 31.0867 27.1781 31.0867 22.7101C31.0867 18.2422 27.4093 14.6147 22.8796 14.6147Z" fill="#FFC973"/>
</svg>
