<svg width="39" height="57" viewBox="0 0 39 57" fill="none" xmlns="http://www.w3.org/2000/svg">
<path d="M18.124 55.0703C18.8332 55.8863 20.0262 55.8863 20.7354 55.0703C23.2115 52.2213 27.5083 46.9008 31.1807 40.4404C34.8626 33.9633 37.8594 26.4402 37.8594 19.165C37.8593 9.15272 29.6138 1.00004 19.4297 1C9.2456 1 1.00011 9.15269 1 19.165C1 26.4402 3.99684 33.9633 7.67871 40.4404C11.3511 46.9009 15.6479 52.2213 18.124 55.0703ZM19.4297 27.1602C15.0439 27.1602 11.4602 23.6453 11.46 19.2861C11.46 14.9268 15.0438 11.4111 19.4297 11.4111C23.8156 11.4112 27.3994 14.9268 27.3994 19.2861C27.3992 23.6453 23.8155 27.1601 19.4297 27.1602Z" fill="#FFD182" stroke="#73706D" stroke-width="2"/>
</svg>
