<svg width="208" height="98" viewBox="0 0 208 98" fill="none" xmlns="http://www.w3.org/2000/svg">
<g filter="url(#filter0_d_100_687)">
<path d="M29.2 5.44995H178.2C189.108 5.44995 197.95 14.2923 197.95 25.2V64.2C197.95 75.1076 189.108 83.95 178.2 83.95H29.2C18.2923 83.95 9.44995 75.1076 9.44995 64.2V25.2C9.44995 14.2923 18.2923 5.44995 29.2 5.44995Z" fill="white" stroke="#D9D9D9" stroke-width="0.5"/>
<path d="M46.324 71.2703C47.0332 72.0862 48.2261 72.0862 48.9353 71.2703C51.4115 68.4212 55.7082 63.1008 59.3806 56.6404C63.0625 50.1632 66.0593 42.6402 66.0593 35.365C66.0592 25.3527 57.8138 17.2 47.6296 17.2C37.4456 17.2 29.2001 25.3526 29.2 35.365C29.2 42.6402 32.1968 50.1632 35.8787 56.6404C39.5511 63.1008 43.8478 68.4212 46.324 71.2703ZM47.6296 43.3601C43.2439 43.3601 39.6602 39.8453 39.6599 35.4861C39.6599 31.1267 43.2437 27.6111 47.6296 27.6111C52.0156 27.6111 55.5994 31.1268 55.5994 35.4861C55.5991 39.8453 52.0154 43.3601 47.6296 43.3601Z" fill="#FFD182" stroke="#73706D" stroke-width="2"/>
<g clip-path="url(#clip0_100_687)">
<path d="M61.7 62.2834C66.9928 62.2834 71.2834 57.9928 71.2834 52.7C71.2834 47.4073 66.9928 43.1167 61.7 43.1167C56.4073 43.1167 52.1167 47.4073 52.1167 52.7C52.1167 57.9928 56.4073 62.2834 61.7 62.2834Z" fill="white"/>
<path d="M61.7 48.8667V56.5334M57.8667 52.7H65.5334M71.2834 52.7C71.2834 57.9928 66.9928 62.2834 61.7 62.2834C56.4073 62.2834 52.1167 57.9928 52.1167 52.7C52.1167 47.4073 56.4073 43.1167 61.7 43.1167C66.9928 43.1167 71.2834 47.4073 71.2834 52.7Z" stroke="#73706D" stroke-width="2.5" stroke-linecap="round" stroke-linejoin="round"/>
</g>
<path d="M87.62 41.66C87.2466 41.66 86.96 41.56 86.76 41.36C86.5733 41.16 86.48 40.8733 86.48 40.5V37.34C86.48 36.5533 86.88 36.16 87.68 36.16H89.04L87.52 36.56C88.28 35.8 88.84 34.7 89.2 33.26C89.5733 31.82 89.76 29.9933 89.76 27.78V25.46C89.76 25.02 89.8733 24.6866 90.1 24.46C90.34 24.22 90.68 24.1 91.12 24.1H98.38C98.82 24.1 99.1533 24.22 99.38 24.46C99.62 24.6866 99.74 25.02 99.74 25.46V37.12L98.78 36.16H100.54C100.927 36.16 101.22 36.26 101.42 36.46C101.633 36.66 101.74 36.9533 101.74 37.34V40.5C101.74 41.2733 101.367 41.66 100.62 41.66C100.247 41.66 99.96 41.56 99.76 41.36C99.56 41.16 99.46 40.8733 99.46 40.5V38.2H88.76V40.5C88.76 41.2733 88.38 41.66 87.62 41.66ZM90.48 36.16H97.16V26.14H92.14V28.02C92.14 29.94 92 31.56 91.72 32.88C91.4533 34.2 91.04 35.2933 90.48 36.16ZM108.077 38.4C107.063 38.4 106.183 38.1933 105.437 37.78C104.69 37.3666 104.11 36.78 103.697 36.02C103.283 35.2466 103.077 34.34 103.077 33.3C103.077 32.5133 103.19 31.8133 103.417 31.2C103.657 30.5733 103.997 30.04 104.437 29.6C104.877 29.1466 105.403 28.8066 106.017 28.58C106.63 28.34 107.317 28.22 108.077 28.22C109.09 28.22 109.97 28.4266 110.717 28.84C111.463 29.2533 112.043 29.84 112.457 30.6C112.87 31.36 113.077 32.26 113.077 33.3C113.077 34.0866 112.957 34.7933 112.717 35.42C112.49 36.0466 112.157 36.5866 111.717 37.04C111.277 37.48 110.75 37.82 110.137 38.06C109.523 38.2866 108.837 38.4 108.077 38.4ZM108.077 36.5C108.57 36.5 109.003 36.38 109.377 36.14C109.75 35.9 110.037 35.5466 110.237 35.08C110.45 34.6 110.557 34.0066 110.557 33.3C110.557 32.2333 110.33 31.44 109.877 30.92C109.423 30.3866 108.823 30.12 108.077 30.12C107.583 30.12 107.15 30.24 106.777 30.48C106.403 30.7066 106.11 31.06 105.897 31.54C105.697 32.0066 105.597 32.5933 105.597 33.3C105.597 34.3533 105.823 35.1533 106.277 35.7C106.73 36.2333 107.33 36.5 108.077 36.5ZM115.573 40.96C115.24 40.96 114.973 40.86 114.773 40.66C114.587 40.4733 114.493 40.2 114.493 39.84V37.4C114.493 36.6266 114.88 36.24 115.653 36.24H116.773L115.293 36.76C115.64 36.2933 115.913 35.8066 116.113 35.3C116.313 34.7933 116.46 34.2133 116.553 33.56C116.647 32.8933 116.693 32.1066 116.693 31.2V29.82C116.693 29.3666 116.813 29.02 117.053 28.78C117.293 28.54 117.64 28.42 118.093 28.42H122.913C123.367 28.42 123.713 28.54 123.953 28.78C124.193 29.02 124.313 29.3666 124.313 29.82V37.4L123.153 36.24H124.753C125.127 36.24 125.413 36.34 125.613 36.54C125.813 36.7266 125.913 37.0133 125.913 37.4V39.84C125.913 40.5866 125.56 40.96 124.853 40.96C124.507 40.96 124.24 40.86 124.053 40.66C123.88 40.4733 123.793 40.2 123.793 39.84V38.2H116.613V39.84C116.613 40.5866 116.267 40.96 115.573 40.96ZM117.873 36.24H121.973V30.34H118.833V31.78C118.833 32.62 118.747 33.4333 118.573 34.22C118.413 35.0066 118.18 35.68 117.873 36.24ZM130.997 38.4C130.29 38.4 129.657 38.2666 129.097 38C128.55 37.72 128.117 37.3466 127.797 36.88C127.49 36.4133 127.337 35.8866 127.337 35.3C127.337 34.58 127.523 34.0133 127.897 33.6C128.27 33.1733 128.877 32.8666 129.717 32.68C130.557 32.4933 131.683 32.4 133.097 32.4H134.097V33.84H133.117C132.29 33.84 131.63 33.88 131.137 33.96C130.643 34.04 130.29 34.18 130.077 34.38C129.877 34.5666 129.777 34.8333 129.777 35.18C129.777 35.62 129.93 35.98 130.237 36.26C130.543 36.54 130.97 36.68 131.517 36.68C131.957 36.68 132.343 36.58 132.677 36.38C133.023 36.1666 133.297 35.88 133.497 35.52C133.697 35.16 133.797 34.7466 133.797 34.28V31.98C133.797 31.3133 133.65 30.8333 133.357 30.54C133.063 30.2466 132.57 30.1 131.877 30.1C131.49 30.1 131.07 30.1466 130.617 30.24C130.177 30.3333 129.71 30.4933 129.217 30.72C128.963 30.84 128.737 30.8733 128.537 30.82C128.35 30.7666 128.203 30.66 128.097 30.5C127.99 30.3266 127.937 30.14 127.937 29.94C127.937 29.74 127.99 29.5466 128.097 29.36C128.203 29.16 128.383 29.0133 128.637 28.92C129.25 28.6666 129.837 28.4866 130.397 28.38C130.97 28.2733 131.49 28.22 131.957 28.22C132.917 28.22 133.703 28.3666 134.317 28.66C134.943 28.9533 135.41 29.4 135.717 30C136.023 30.5866 136.177 31.3466 136.177 32.28V37.08C136.177 37.4933 136.077 37.8133 135.877 38.04C135.677 38.2533 135.39 38.36 135.017 38.36C134.643 38.36 134.35 38.2533 134.137 38.04C133.937 37.8133 133.837 37.4933 133.837 37.08V36.12H133.997C133.903 36.5866 133.717 36.9933 133.437 37.34C133.17 37.6733 132.83 37.9333 132.417 38.12C132.003 38.3066 131.53 38.4 130.997 38.4ZM142.288 38.36C141.888 38.36 141.574 38.2533 141.348 38.04C141.134 37.8133 141.028 37.4933 141.028 37.08V30.38H138.588C137.868 30.38 137.508 30.0533 137.508 29.4C137.508 29.0933 137.601 28.8533 137.788 28.68C137.988 28.5066 138.254 28.42 138.588 28.42H145.968C146.688 28.42 147.048 28.7466 147.048 29.4C147.048 29.72 146.954 29.9666 146.768 30.14C146.581 30.3 146.314 30.38 145.968 30.38H143.528V37.08C143.528 37.4933 143.421 37.8133 143.208 38.04C143.008 38.2533 142.701 38.36 142.288 38.36ZM149.581 38.36C149.327 38.36 149.114 38.3133 148.941 38.22C148.767 38.1266 148.634 37.98 148.541 37.78C148.461 37.58 148.421 37.3266 148.421 37.02V29.46C148.421 29.0733 148.521 28.78 148.721 28.58C148.921 28.3666 149.201 28.26 149.561 28.26C149.921 28.26 150.194 28.3666 150.381 28.58C150.581 28.78 150.681 29.0733 150.681 29.46V35.64H150.161L155.101 29.06C155.247 28.8733 155.427 28.6933 155.641 28.52C155.854 28.3466 156.147 28.26 156.521 28.26C156.774 28.26 156.981 28.3066 157.141 28.4C157.314 28.4933 157.441 28.64 157.521 28.84C157.614 29.0266 157.661 29.2733 157.661 29.58V37.16C157.661 37.5333 157.561 37.8266 157.361 38.04C157.174 38.2533 156.901 38.36 156.541 38.36C156.167 38.36 155.881 38.2533 155.681 38.04C155.494 37.8266 155.401 37.5333 155.401 37.16V30.96H155.941L150.981 37.56C150.847 37.7466 150.674 37.9266 150.461 38.1C150.261 38.2733 149.967 38.36 149.581 38.36ZM90.94 58.36C90.54 58.36 90.2266 58.2533 90 58.04C89.7866 57.8133 89.68 57.4933 89.68 57.08V50.38H87.24C86.52 50.38 86.16 50.0533 86.16 49.4C86.16 49.0933 86.2533 48.8533 86.44 48.68C86.64 48.5066 86.9066 48.42 87.24 48.42H94.62C95.34 48.42 95.7 48.7466 95.7 49.4C95.7 49.72 95.6066 49.9666 95.42 50.14C95.2333 50.3 94.9666 50.38 94.62 50.38H92.18V57.08C92.18 57.4933 92.0733 57.8133 91.86 58.04C91.66 58.2533 91.3533 58.36 90.94 58.36ZM98.3131 58.2C97.9131 58.2 97.6064 58.0933 97.3931 57.88C97.1797 57.6666 97.0731 57.36 97.0731 56.96V49.66C97.0731 49.26 97.1797 48.9533 97.3931 48.74C97.6064 48.5266 97.9131 48.42 98.3131 48.42H102.353C103.193 48.42 103.873 48.52 104.393 48.72C104.926 48.92 105.313 49.2133 105.553 49.6C105.793 49.9733 105.913 50.4333 105.913 50.98C105.913 51.5933 105.7 52.1133 105.273 52.54C104.86 52.9533 104.306 53.2066 103.613 53.3V53.02C104.48 53.0733 105.133 53.32 105.573 53.76C106.026 54.2 106.253 54.7666 106.253 55.46C106.253 56.3 105.933 56.9666 105.293 57.46C104.653 57.9533 103.726 58.2 102.513 58.2H98.3131ZM99.3931 56.66H102.293C102.84 56.66 103.253 56.5466 103.533 56.32C103.826 56.0933 103.973 55.76 103.973 55.32C103.973 54.88 103.826 54.5466 103.533 54.32C103.253 54.0933 102.84 53.98 102.293 53.98H99.3931V56.66ZM99.3931 52.44H102.113C102.593 52.44 102.966 52.3333 103.233 52.12C103.5 51.8933 103.633 51.58 103.633 51.18C103.633 50.78 103.5 50.48 103.233 50.28C102.966 50.0666 102.593 49.96 102.113 49.96H99.3931V52.44ZM111.68 58.4C110.974 58.4 110.34 58.2666 109.78 58C109.234 57.72 108.8 57.3466 108.48 56.88C108.174 56.4133 108.02 55.8866 108.02 55.3C108.02 54.58 108.207 54.0133 108.58 53.6C108.954 53.1733 109.56 52.8666 110.4 52.68C111.24 52.4933 112.367 52.4 113.78 52.4H114.78V53.84H113.8C112.974 53.84 112.314 53.88 111.82 53.96C111.327 54.04 110.974 54.18 110.76 54.38C110.56 54.5666 110.46 54.8333 110.46 55.18C110.46 55.62 110.614 55.98 110.92 56.26C111.227 56.54 111.654 56.68 112.2 56.68C112.64 56.68 113.027 56.58 113.36 56.38C113.707 56.1666 113.98 55.88 114.18 55.52C114.38 55.16 114.48 54.7466 114.48 54.28V51.98C114.48 51.3133 114.334 50.8333 114.04 50.54C113.747 50.2466 113.254 50.1 112.56 50.1C112.174 50.1 111.754 50.1466 111.3 50.24C110.86 50.3333 110.394 50.4933 109.9 50.72C109.647 50.84 109.42 50.8733 109.22 50.82C109.034 50.7666 108.887 50.66 108.78 50.5C108.674 50.3266 108.62 50.14 108.62 49.94C108.62 49.74 108.674 49.5466 108.78 49.36C108.887 49.16 109.067 49.0133 109.32 48.92C109.934 48.6666 110.52 48.4866 111.08 48.38C111.654 48.2733 112.174 48.22 112.64 48.22C113.6 48.22 114.387 48.3666 115 48.66C115.627 48.9533 116.094 49.4 116.4 50C116.707 50.5866 116.86 51.3466 116.86 52.28V57.08C116.86 57.4933 116.76 57.8133 116.56 58.04C116.36 58.2533 116.074 58.36 115.7 58.36C115.327 58.36 115.034 58.2533 114.82 58.04C114.62 57.8133 114.52 57.4933 114.52 57.08V56.12H114.68C114.587 56.5866 114.4 56.9933 114.12 57.34C113.854 57.6733 113.514 57.9333 113.1 58.12C112.687 58.3066 112.214 58.4 111.68 58.4ZM120.911 61.96C120.511 61.96 120.205 61.8533 119.991 61.64C119.778 61.4266 119.671 61.1133 119.671 60.7V49.52C119.671 49.1066 119.778 48.7933 119.991 48.58C120.205 48.3666 120.505 48.26 120.891 48.26C121.291 48.26 121.598 48.3666 121.811 48.58C122.025 48.7933 122.131 49.1066 122.131 49.52V51.08L121.911 50.48C122.111 49.8 122.518 49.2533 123.131 48.84C123.758 48.4266 124.485 48.22 125.311 48.22C126.165 48.22 126.911 48.4266 127.551 48.84C128.205 49.2533 128.711 49.84 129.071 50.6C129.431 51.3466 129.611 52.2466 129.611 53.3C129.611 54.34 129.431 55.2466 129.071 56.02C128.711 56.78 128.211 57.3666 127.571 57.78C126.931 58.1933 126.178 58.4 125.311 58.4C124.498 58.4 123.785 58.2 123.171 57.8C122.558 57.3866 122.145 56.8533 121.931 56.2H122.171V60.7C122.171 61.1133 122.058 61.4266 121.831 61.64C121.618 61.8533 121.311 61.96 120.911 61.96ZM124.611 56.5C125.105 56.5 125.538 56.38 125.911 56.14C126.285 55.9 126.571 55.5466 126.771 55.08C126.985 54.6 127.091 54.0066 127.091 53.3C127.091 52.2333 126.865 51.44 126.411 50.92C125.958 50.3866 125.358 50.12 124.611 50.12C124.118 50.12 123.685 50.24 123.311 50.48C122.938 50.7066 122.645 51.06 122.431 51.54C122.231 52.0066 122.131 52.5933 122.131 53.3C122.131 54.3533 122.358 55.1533 122.811 55.7C123.265 56.2333 123.865 56.5 124.611 56.5ZM133.096 58.36C132.843 58.36 132.63 58.3133 132.456 58.22C132.283 58.1266 132.15 57.98 132.056 57.78C131.976 57.58 131.936 57.3266 131.936 57.02V49.46C131.936 49.0733 132.036 48.78 132.236 48.58C132.436 48.3666 132.716 48.26 133.076 48.26C133.436 48.26 133.71 48.3666 133.896 48.58C134.096 48.78 134.196 49.0733 134.196 49.46V55.64H133.676L138.616 49.06C138.763 48.8733 138.943 48.6933 139.156 48.52C139.37 48.3466 139.663 48.26 140.036 48.26C140.29 48.26 140.496 48.3066 140.656 48.4C140.83 48.4933 140.956 48.64 141.036 48.84C141.13 49.0266 141.176 49.2733 141.176 49.58V57.16C141.176 57.5333 141.076 57.8266 140.876 58.04C140.69 58.2533 140.416 58.36 140.056 58.36C139.683 58.36 139.396 58.2533 139.196 58.04C139.01 57.8266 138.916 57.5333 138.916 57.16V50.96H139.456L134.496 57.56C134.363 57.7466 134.19 57.9266 133.976 58.1C133.776 58.2733 133.483 58.36 133.096 58.36ZM145.267 58.36C144.867 58.36 144.553 58.2533 144.327 58.04C144.113 57.8133 144.007 57.4933 144.007 57.08V49.52C144.007 49.0933 144.113 48.78 144.327 48.58C144.553 48.3666 144.867 48.26 145.267 48.26C145.667 48.26 145.973 48.3666 146.187 48.58C146.4 48.78 146.507 49.0933 146.507 49.52V52.2H150.827V49.52C150.827 49.0933 150.933 48.78 151.147 48.58C151.36 48.3666 151.667 48.26 152.067 48.26C152.467 48.26 152.773 48.3666 152.987 48.58C153.213 48.78 153.327 49.0933 153.327 49.52V57.08C153.327 57.4933 153.213 57.8133 152.987 58.04C152.773 58.2533 152.467 58.36 152.067 58.36C151.667 58.36 151.36 58.2533 151.147 58.04C150.933 57.8133 150.827 57.4933 150.827 57.08V54.16H146.507V57.08C146.507 57.4933 146.4 57.8133 146.187 58.04C145.987 58.2533 145.68 58.36 145.267 58.36ZM158.675 61.96C158.381 61.96 158.141 61.88 157.955 61.72C157.768 61.5733 157.655 61.3733 157.615 61.12C157.588 60.8666 157.635 60.6 157.755 60.32L159.115 57.3V58.34L155.475 49.92C155.355 49.6266 155.315 49.3533 155.355 49.1C155.395 48.8466 155.515 48.6466 155.715 48.5C155.928 48.34 156.215 48.26 156.575 48.26C156.881 48.26 157.128 48.3333 157.315 48.48C157.501 48.6133 157.668 48.8733 157.815 49.26L160.515 56H159.915L162.675 49.24C162.821 48.8666 162.995 48.6133 163.195 48.48C163.395 48.3333 163.661 48.26 163.995 48.26C164.288 48.26 164.521 48.34 164.695 48.5C164.868 48.6466 164.975 48.8466 165.015 49.1C165.055 49.34 165.008 49.6066 164.875 49.9L160.015 61C159.841 61.3733 159.655 61.6266 159.455 61.76C159.255 61.8933 158.995 61.96 158.675 61.96Z" fill="black"/>
</g>
<defs>
<filter id="filter0_d_100_687" x="-4.86374e-05" y="-4.86374e-05" width="207.4" height="97.4" filterUnits="userSpaceOnUse" color-interpolation-filters="sRGB">
<feFlood flood-opacity="0" result="BackgroundImageFix"/>
<feColorMatrix in="SourceAlpha" type="matrix" values="0 0 0 0 0 0 0 0 0 0 0 0 0 0 0 0 0 0 127 0" result="hardAlpha"/>
<feOffset dy="4"/>
<feGaussianBlur stdDeviation="4.6"/>
<feComposite in2="hardAlpha" operator="out"/>
<feColorMatrix type="matrix" values="0 0 0 0 0 0 0 0 0 0 0 0 0 0 0 0 0 0 0.12 0"/>
<feBlend mode="normal" in2="BackgroundImageFix" result="effect1_dropShadow_100_687"/>
<feBlend mode="normal" in="SourceGraphic" in2="effect1_dropShadow_100_687" result="shape"/>
</filter>
<clipPath id="clip0_100_687">
<rect width="23" height="23" fill="white" transform="translate(50.2 41.2)"/>
</clipPath>
</defs>
</svg>
