<svg width="23" height="23" viewBox="0 0 23 23" fill="none" xmlns="http://www.w3.org/2000/svg">
<g clip-path="url(#clip0_100_283)">
<path d="M11.5 21.0832C16.7927 21.0832 21.0833 16.7926 21.0833 11.4998C21.0833 6.20711 16.7927 1.9165 11.5 1.9165C6.20723 1.9165 1.91663 6.20711 1.91663 11.4998C1.91663 16.7926 6.20723 21.0832 11.5 21.0832Z" fill="white"/>
<path d="M11.5 7.6665V15.3332M7.66663 11.4998H15.3333M21.0833 11.4998C21.0833 16.7926 16.7927 21.0832 11.5 21.0832C6.20723 21.0832 1.91663 16.7926 1.91663 11.4998C1.91663 6.20711 6.20723 1.9165 11.5 1.9165C16.7927 1.9165 21.0833 6.20711 21.0833 11.4998Z" stroke="#73706D" stroke-width="2.5" stroke-linecap="round" stroke-linejoin="round"/>
</g>
<defs>
<clipPath id="clip0_100_283">
<rect width="23" height="23" fill="white"/>
</clipPath>
</defs>
</svg>
