<svg width="32" height="32" viewBox="0 0 32 32" fill="none" xmlns="http://www.w3.org/2000/svg">
<g clip-path="url(#clip0_220_701)">
<path d="M16.0002 20C18.2093 20 20.0002 18.2092 20.0002 16C20.0002 13.7909 18.2093 12 16.0002 12C13.791 12 12.0002 13.7909 12.0002 16C12.0002 18.2092 13.791 20 16.0002 20Z" stroke="#8BC4E8" stroke-width="2.5" stroke-linecap="round" stroke-linejoin="round"/>
<path d="M25.8668 20C25.6893 20.4022 25.6364 20.8483 25.7148 21.2808C25.7932 21.7134 25.9994 22.1125 26.3068 22.4267L26.3868 22.5067C26.6348 22.7544 26.8315 23.0485 26.9657 23.3722C27.0999 23.6959 27.1689 24.0429 27.1689 24.3934C27.1689 24.7438 27.0999 25.0908 26.9657 25.4145C26.8315 25.7383 26.6348 26.0324 26.3868 26.28C26.1392 26.528 25.8451 26.7247 25.5213 26.8589C25.1976 26.9931 24.8506 27.0621 24.5002 27.0621C24.1497 27.0621 23.8027 26.9931 23.479 26.8589C23.1553 26.7247 22.8612 26.528 22.6135 26.28L22.5335 26.2C22.2193 25.8927 21.8201 25.6865 21.3876 25.608C20.9551 25.5296 20.509 25.5826 20.1068 25.76C19.7125 25.9291 19.3761 26.2097 19.1392 26.5674C18.9023 26.9251 18.7752 27.3443 18.7735 27.7734V28C18.7735 28.7073 18.4925 29.3856 17.9924 29.8857C17.4924 30.3858 16.8141 30.6667 16.1068 30.6667C15.3996 30.6667 14.7213 30.3858 14.2212 29.8857C13.7211 29.3856 13.4402 28.7073 13.4402 28V27.88C13.4298 27.4387 13.287 27.0107 13.0302 26.6516C12.7734 26.2926 12.4145 26.0191 12.0002 25.8667C11.598 25.6892 11.1519 25.6363 10.7194 25.7147C10.2869 25.7931 9.88773 25.9993 9.5735 26.3067L9.4935 26.3867C9.24583 26.6346 8.95173 26.8313 8.628 26.9655C8.30428 27.0997 7.95727 27.1688 7.60683 27.1688C7.25639 27.1688 6.90938 27.0997 6.58566 26.9655C6.26193 26.8313 5.96782 26.6346 5.72016 26.3867C5.47223 26.139 5.27553 25.8449 5.14134 25.5212C5.00714 25.1975 4.93807 24.8505 4.93807 24.5C4.93807 24.1496 5.00714 23.8026 5.14134 23.4789C5.27553 23.1551 5.47223 22.861 5.72016 22.6134L5.80016 22.5334C6.10755 22.2191 6.31374 21.82 6.39217 21.3875C6.47059 20.955 6.41765 20.5089 6.24016 20.1067C6.07115 19.7123 5.7905 19.376 5.43278 19.1391C5.07506 18.9022 4.65588 18.7751 4.22683 18.7734H4.00016C3.29292 18.7734 2.61464 18.4924 2.11454 17.9923C1.61445 17.4922 1.3335 16.814 1.3335 16.1067C1.3335 15.3995 1.61445 14.7212 2.11454 14.2211C2.61464 13.721 3.29292 13.44 4.00016 13.44H4.12016C4.56149 13.4297 4.9895 13.2869 5.34856 13.0301C5.70762 12.7732 5.98112 12.4144 6.1335 12C6.31098 11.5979 6.36393 11.1518 6.2855 10.7193C6.20708 10.2867 6.00088 9.88761 5.6935 9.57337L5.6135 9.49337C5.36556 9.24571 5.16887 8.95161 5.03467 8.62788C4.90047 8.30415 4.8314 7.95715 4.8314 7.60671C4.8314 7.25627 4.90047 6.90926 5.03467 6.58553C5.16887 6.26181 5.36556 5.9677 5.6135 5.72004C5.86116 5.4721 6.15526 5.27541 6.47899 5.14121C6.80272 5.00702 7.14972 4.93794 7.50016 4.93794C7.8506 4.93794 8.19761 5.00702 8.52134 5.14121C8.84507 5.27541 9.13917 5.4721 9.38683 5.72004L9.46683 5.80004C9.78107 6.10742 10.1802 6.31362 10.6127 6.39205C11.0452 6.47047 11.4913 6.41753 11.8935 6.24004H12.0002C12.3945 6.07102 12.7309 5.79038 12.9678 5.43266C13.2047 5.07494 13.3318 4.65576 13.3335 4.22671V4.00004C13.3335 3.2928 13.6144 2.61452 14.1145 2.11442C14.6146 1.61433 15.2929 1.33337 16.0002 1.33337C16.7074 1.33337 17.3857 1.61433 17.8858 2.11442C18.3859 2.61452 18.6668 3.2928 18.6668 4.00004V4.12004C18.6685 4.54909 18.7957 4.96827 19.0326 5.32599C19.2695 5.68372 19.6058 5.96436 20.0002 6.13337C20.4023 6.31086 20.8484 6.36381 21.2809 6.28538C21.7135 6.20695 22.1126 6.00076 22.4268 5.69337L22.5068 5.61337C22.7545 5.36544 23.0486 5.16875 23.3723 5.03455C23.6961 4.90035 24.0431 4.83128 24.3935 4.83128C24.7439 4.83128 25.0909 4.90035 25.4147 5.03455C25.7384 5.16875 26.0325 5.36544 26.2802 5.61337C26.5281 5.86104 26.7248 6.15514 26.859 6.47887C26.9932 6.80259 27.0623 7.1496 27.0623 7.50004C27.0623 7.85048 26.9932 8.19749 26.859 8.52122C26.7248 8.84494 26.5281 9.13905 26.2802 9.38671L26.2002 9.46671C25.8928 9.78095 25.6866 10.1801 25.6082 10.6126C25.5297 11.0451 25.5827 11.4912 25.7602 11.8934V12C25.9292 12.3944 26.2098 12.7307 26.5675 12.9676C26.9253 13.2045 27.3444 13.3317 27.7735 13.3334H28.0002C28.7074 13.3334 29.3857 13.6143 29.8858 14.1144C30.3859 14.6145 30.6668 15.2928 30.6668 16C30.6668 16.7073 30.3859 17.3856 29.8858 17.8857C29.3857 18.3858 28.7074 18.6667 28.0002 18.6667H27.8802C27.4511 18.6684 27.0319 18.7956 26.6742 19.0325C26.3165 19.2694 26.0358 19.6057 25.8668 20Z" stroke="#8BC4E8" stroke-width="2.5" stroke-linecap="round" stroke-linejoin="round"/>
</g>
<defs>
<clipPath id="clip0_220_701">
<rect width="32" height="32" fill="white"/>
</clipPath>
</defs>
</svg>
