<svg width="29" height="42" viewBox="0 0 29 42" fill="none" xmlns="http://www.w3.org/2000/svg">
<path fill-rule="evenodd" clip-rule="evenodd" d="M16.3873 39.7758C15.2971 41.0342 13.4187 41.0342 12.3285 39.7758C8.36964 35.2059 0 24.3109 0 13.8783C0 6.21863 6.43358 0 14.3579 0C22.2823 0 28.7158 6.21863 28.7158 13.8783C28.7158 24.3109 20.3462 35.2059 16.3873 39.7758ZM14.3579 8.98729C11.5154 8.98729 9.20766 11.218 9.20766 13.9655C9.20766 16.7131 11.5154 18.9438 14.3579 18.9438C17.2005 18.9438 19.5082 16.7131 19.5082 13.9655C19.5082 11.218 17.2005 8.98729 14.3579 8.98729Z" fill="#8BC4E8"/>
</svg>
